<svg width="36" height="31" viewBox="0 0 36 31" fill="none" xmlns="http://www.w3.org/2000/svg">
<path d="M33.6972 15.0205H29.8563C29.8563 6.72458 23.1726 0 14.928 0C6.78522 0 0.164807 6.56012 0.00263707 14.7143C-0.165084 23.1425 7.69394 30.4615 16.0718 30.4615H17.1255C24.5118 30.4615 34.4113 24.6441 35.958 17.5558C36.2435 16.2496 35.027 15.0205 33.6972 15.0205ZM8.93701 15.39C8.93701 16.4995 8.03536 17.4067 6.93274 17.4067C5.83013 17.4067 4.92847 16.4989 4.92847 15.39V12.1275C4.92847 11.0181 5.83013 10.1109 6.93274 10.1109C8.03536 10.1109 8.93701 11.0181 8.93701 12.1275V15.39ZM15.8969 15.39C15.8969 16.4995 14.9953 17.4067 13.8926 17.4067C12.79 17.4067 11.8884 16.4989 11.8884 15.39V12.1275C11.8884 11.0181 12.7906 10.1109 13.8926 10.1109C14.9953 10.1109 15.8969 11.0181 15.8969 12.1275V15.39Z" fill="url(#paint0_linear_86_3455)"/>
<defs>
<linearGradient id="paint0_linear_86_3455" x1="7.5" y1="2.5" x2="28" y2="30" gradientUnits="userSpaceOnUse">
<stop stop-color="#D75279"/>
<stop offset="1" stop-color="#DE7760"/>
</linearGradient>
</defs>
</svg>
